{"asset":{"version":"2.0","generator":"Sketchup glTF Exporter by Centaur, PBR extension for SketchUp"},"scene":0,"scenes":[{"nodes":[0]}],"nodes":[{"name":"root","children":[1]},{"name":"Stacy","mesh":0}],"materials":[{"pbrMetallicRoughness":{"baseColorFactor":[0.8235,0.7059,0.549,1.0],"metallicFactor":0.5,"roughnessFactor":0.7},"name":"Stacy_Skin","doubleSided":true},{"pbrMetallicRoughness":{"baseColorFactor":[0.4,0.4,0.4,1.0],"metallicFactor":0.0,"roughnessFactor":0.7},"name":"Stacy_Shirt","doubleSided":true},{"pbrMetallicRoughness":{"baseColorFactor":[0.902,0.1686,0.1725,1.0],"metallicFactor":0.0,"roughnessFactor":0.7},"name":"Stacy_Shoe","doubleSided":true},{"pbrMetallicRoughness":{"baseColorFactor":[0.8863,0.8863,0.8863,1.0],"metallicFactor":0.0,"roughnessFactor":0.7},"name":"Stacy_Shoe_Laces_Sole","doubleSided":true},{"pbrMetallicRoughness":{"baseColorFactor":[0.1412,0.0745,0.0275,1.0],"metallicFactor":0.0,"roughnessFactor":0.7},"name":"Stacy_Hair","doubleSided":true},{"pbrMetallicRoughness":{"baseColorFactor":[0.1569,0.2275,0.3686,1.0],"metallicFactor":0.0,"roughnessFactor":0.7},"name":"Stacy_Pants","doubleSided":true,"alphaMode":"MASK"}],"meshes":[{"primitives":[{"attributes":{"POSITION":0,"NORMAL":1},"indices":2,"mode":4,"material":0},{"attributes":{"POSITION":0,"NORMAL":1},"indices":3,"mode":4,"material":1},{"attributes":{"POSITION":0,"NORMAL":1},"indices":4,"mode":4,"material":2},{"attributes":{"POSITION":0,"NORMAL":1},"indices":5,"mode":4,"material":3},{"attributes":{"POSITION":0,"NORMAL":1},"indices":6,"mode":4,"material":4},{"attributes":{"POSITION":0,"NORMAL":1},"indices":7,"mode":4,"material":5}]}],"accessors":[{"bufferView":0,"componentType":5126,"count":1682,"type":"VEC3","min":[0.32,-0.02,-0.59],"max":[0.81,1.68,-0.25]},{"bufferView":1,"componentType":5126,"count":1682,"type":"VEC3","min":[0.54,-0.02,0.81],"max":[0.57,0.02,0.84]},{"bufferView":2,"componentType":5123,"count":900,"type":"SCALAR"},{"bufferView":2,"componentType":5123,"count":1536,"type":"SCALAR","byteOffset":1800},{"bufferView":2,"componentType":5123,"count":585,"type":"SCALAR","byteOffset":4872},{"bufferView":2,"componentType":5123,"count":921,"type":"SCALAR","byteOffset":6042},{"bufferView":2,"componentType":5123,"count":363,"type":"SCALAR","byteOffset":7884},{"bufferView":2,"componentType":5123,"count":489,"type":"SCALAR","byteOffset":8610}],"bufferViews":[{"buffer":0,"byteLength":20184,"target":34962,"byteStride":12},{"buffer":0,"byteOffset":20184,"byteLength":20184,"target":34962,"byteStride":12},{"buffer":0,"byteOffset":40368,"byteLength":9588,"target":34963}],"buffers":[{"uri":"data:application/octet-stream;base64,","byteLength":49956}]}