<?xml version="1.0" encoding="UTF-8" standalone="no"?>
<!-- Created with Inkscape (http://www.inkscape.org/) -->

<svg
   xmlns:dc="http://purl.org/dc/elements/1.1/"
   xmlns:cc="http://creativecommons.org/ns#"
   xmlns:rdf="http://www.w3.org/1999/02/22-rdf-syntax-ns#"
   xmlns:svg="http://www.w3.org/2000/svg"
   xmlns="http://www.w3.org/2000/svg"
   xmlns:sodipodi="http://sodipodi.sourceforge.net/DTD/sodipodi-0.dtd"
   xmlns:inkscape="http://www.inkscape.org/namespaces/inkscape"
   width="31.700338mm"
   height="53.000511mm"
   viewBox="0 0 31.700338 53.000511"
   version="1.1"
   id="svg45"
   sodipodi:docname="aal.svg"
   inkscape:version="0.92.4 (5da689c313, 2019-01-14)">
  <defs
     id="defs39" />
  <sodipodi:namedview
     id="base"
     pagecolor="#ffffff"
     bordercolor="#666666"
     borderopacity="1.0"
     inkscape:pageopacity="0.0"
     inkscape:pageshadow="2"
     inkscape:zoom="1.4"
     inkscape:cx="99.815694"
     inkscape:cy="2.9255639"
     inkscape:document-units="mm"
     inkscape:current-layer="g58"
     showgrid="false"
     fit-margin-top="0"
     fit-margin-left="0"
     fit-margin-right="0"
     fit-margin-bottom="0"
     inkscape:window-width="1920"
     inkscape:window-height="986"
     inkscape:window-x="-11"
     inkscape:window-y="-11"
     inkscape:window-maximized="1"
     inkscape:pagecheckerboard="true" />
  <metadata
     id="metadata42">
    <rdf:RDF>
      <cc:Work
         rdf:about="">
        <dc:format>image/svg+xml</dc:format>
        <dc:type
           rdf:resource="http://purl.org/dc/dcmitype/StillImage" />
        <dc:title></dc:title>
      </cc:Work>
    </rdf:RDF>
  </metadata>
  <g
     inkscape:label="Calque 1"
     inkscape:groupmode="layer"
     id="layer1"
     transform="translate(-40.520032,-120.70245)">
    <g
       id="g58"
       transform="translate(-47.707611,-0.80180859)">
      <path
         style="fill:#d0cfcf;stroke-width:0.26458332"
         d="m 100.47429,173.79234 c -2.748396,-1.32279 -4.884106,-4.4664 -4.884106,-7.18905 0,-1.82568 0.143499,-1.85716 8.466666,-1.85716 8.71725,0 8.61476,-0.0289 8.39724,2.36997 -0.24703,2.72426 -2.06241,5.30413 -4.69307,6.6694 -0.91695,0.47589 -1.70757,0.63609 -3.43959,0.69698 -2.02896,0.0713 -2.40529,0.004 -3.84714,-0.69014 z m -4.685668,-10.39032 c -0.641545,-0.37367 -0.609761,-1.73374 0.04875,-2.08617 0.693757,-0.37128 15.745198,-0.37128 16.438958,0 0.32719,0.17511 0.51177,0.55347 0.51177,1.04903 0,0.49556 -0.18458,0.87392 -0.51177,1.04903 -0.6867,0.3675 -15.8551,0.35657 -16.487709,-0.0119 z m -0.0158,-4.0137 c -0.284415,-0.21012 -0.985693,-2.30871 -1.923027,-5.75469 -1.247375,-4.58581 -1.680621,-5.7798 -2.803688,-7.72676 -2.077467,-3.60151 -2.658891,-5.26731 -2.79786,-8.01595 -0.351967,-6.96153 3.829206,-13.08321 10.717609,-15.69171 1.536014,-0.58166 2.224584,-0.67802 4.958704,-0.69395 3.4497,-0.0201 4.62163,0.25075 7.67292,1.77336 2.21773,1.10666 5.57557,4.53388 6.68297,6.82109 1.07123,2.21247 1.64253,4.64529 1.64749,7.01559 0.005,2.26491 -0.44858,3.87476 -1.9731,7.00706 -1.12215,2.3056 -2.25396,5.49745 -4.23983,11.95694 -0.64411,2.09513 -1.11731,3.19386 -1.45285,3.37343 -0.77259,0.41349 -15.922578,0.3543 -16.489338,-0.0644 z M 91.450968,137.4279 c 0.336797,-1.32357 3.03114,-5.20239 4.919409,-7.08206 2.967617,-2.95409 6.109053,-4.31315 10.795323,-4.67029 1.20055,-0.0915 2.18282,-0.25816 2.18282,-0.37037 0,-0.55804 -2.87028,-1.16469 -5.42396,-1.1464 -2.94247,0.0211 -4.709098,0.53666 -7.145232,2.0853 -3.445544,2.19032 -5.951644,6.71008 -5.951644,10.73382 0,1.13475 0.37935,1.40863 0.623284,0.45 z"
         id="path72"
         inkscape:connector-curvature="0" />
      <path
         style="fill:#f9e729;stroke-width:0.26458332"
         d="m 102.52823,174.25753 c -1.61262,-0.32184 -3.672951,-1.51682 -4.715758,-2.7351 -1.715974,-2.00473 -2.559111,-5.64207 -1.445932,-6.23783 0.824203,-0.4411 14.87223,-0.36549 15.48606,0.0833 1.16537,0.85215 -0.20095,5.0773 -2.21324,6.84412 -1.90409,1.67181 -4.80391,2.50592 -7.11113,2.04546 z m 2.80915,-2.38328 c 1.4411,-0.30906 3.23663,-1.65287 3.88578,-2.9082 0.82998,-1.605 0.93143,-1.57409 -5.16631,-1.57409 -6.009608,0 -5.985264,-0.007 -5.259338,1.40646 0.742518,1.44526 2.382258,2.69807 4.068718,3.10864 1.12461,0.27378 1.03608,0.27496 2.47115,-0.0328 z m -9.425901,-8.76474 c -0.426944,-0.42694 -0.407485,-1.13747 0.04135,-1.50997 0.257406,-0.21363 2.648531,-0.28062 8.239521,-0.23084 7.16874,0.0638 7.90312,0.11176 8.16881,0.53316 0.21287,0.33761 0.21287,0.58843 0,0.92604 -0.26577,0.42151 -1.00191,0.46929 -8.21017,0.53296 -5.937006,0.0524 -7.998609,-0.0104 -8.239513,-0.25135 z m -0.109487,-4.11807 c -0.219656,-0.25466 -1.021615,-2.78474 -1.782131,-5.62239 -1.166567,-4.35273 -1.590288,-5.51942 -2.710129,-7.46218 -2.155785,-3.73998 -2.680951,-5.26473 -2.806487,-8.14824 -0.19591,-4.49996 1.275107,-8.21963 4.562608,-11.5372 2.988025,-3.01536 6.820148,-4.6072 11.070167,-4.59847 5.85046,0.012 11.38977,3.47851 13.92031,8.71133 1.33258,2.75561 1.69844,4.52675 1.55781,7.54142 -0.10631,2.27892 -0.19108,2.56517 -1.7283,5.83604 -1.00362,2.13552 -2.28851,5.59632 -3.38898,9.12813 -0.97487,3.1287 -1.9552,5.8969 -2.17851,6.15156 -0.36957,0.42146 -1.11115,0.46302 -8.2615,0.46302 -7.152883,0 -7.891205,-0.0414 -8.254858,-0.46302 z m -1.077899,-26.48038 c 3.342732,-4.36732 7.021007,-6.23126 12.980007,-6.5775 1.80268,-0.10475 2.69027,-0.25677 2.62957,-0.45038 -0.0504,-0.16074 -0.90415,-0.56614 -1.89723,-0.90088 -5.06902,-1.70863 -10.010524,-0.55019 -13.79257,3.23341 -2.596599,2.59767 -4.080769,5.93756 -4.080769,9.18312 0,2.34148 0.260834,2.30632 1.509635,-0.20351 0.641453,-1.28919 1.834564,-3.21711 2.651357,-4.28426 z"
         id="path70"
         inkscape:connector-curvature="0" />
      <path
         style="fill:#9d9d9c;stroke-width:0.26458332"
         d="m 102.52823,174.25753 c -1.61262,-0.32184 -3.672951,-1.51682 -4.715758,-2.7351 -1.715974,-2.00473 -2.559111,-5.64207 -1.445932,-6.23783 0.824203,-0.4411 14.87223,-0.36549 15.48606,0.0833 1.16537,0.85215 -0.20095,5.0773 -2.21324,6.84412 -1.90409,1.67181 -4.80391,2.50592 -7.11113,2.04546 z m 2.80915,-2.38328 c 1.4411,-0.30906 3.23663,-1.65287 3.88578,-2.9082 0.82998,-1.605 0.93143,-1.57409 -5.16631,-1.57409 -6.009608,0 -5.985264,-0.007 -5.259338,1.40646 0.742518,1.44526 2.382258,2.69807 4.068718,3.10864 1.12461,0.27378 1.03608,0.27496 2.47115,-0.0328 z m -9.425901,-8.76474 c -0.426944,-0.42694 -0.407485,-1.13747 0.04135,-1.50997 0.257406,-0.21363 2.648531,-0.28062 8.239521,-0.23084 7.16874,0.0638 7.90312,0.11176 8.16881,0.53316 0.21287,0.33761 0.21287,0.58843 0,0.92604 -0.26577,0.42151 -1.00191,0.46929 -8.21017,0.53296 -5.937006,0.0524 -7.998609,-0.0104 -8.239513,-0.25135 z m -0.109487,-4.11807 c -0.219656,-0.25466 -1.021615,-2.78474 -1.782131,-5.62239 -1.166567,-4.35273 -1.590288,-5.51942 -2.710129,-7.46218 -2.155785,-3.73998 -2.680951,-5.26473 -2.806487,-8.14824 -0.19591,-4.49996 1.275107,-8.21963 4.562608,-11.5372 2.988025,-3.01536 6.820148,-4.6072 11.070167,-4.59847 5.85046,0.012 11.38977,3.47851 13.92031,8.71133 1.33258,2.75561 1.69844,4.52675 1.55781,7.54142 -0.10631,2.27892 -0.19108,2.56517 -1.7283,5.83604 -1.00362,2.13552 -2.28851,5.59632 -3.38898,9.12813 -0.97487,3.1287 -1.9552,5.8969 -2.17851,6.15156 -0.36957,0.42146 -1.11115,0.46302 -8.2615,0.46302 -7.152883,0 -7.891205,-0.0414 -8.254858,-0.46302 z m 6.931938,-6.15156 v -4.23333 h -2.19604 c -1.355252,0 -2.317599,-0.12156 -2.513539,-0.3175 -0.486072,-0.48607 -0.377788,-1.4837 0.194272,-1.78986 0.682704,-0.36537 10.993747,-0.36537 11.676457,0 0.57206,0.30616 0.68034,1.30379 0.19427,1.78986 -0.19594,0.19594 -1.15829,0.3175 -2.51354,0.3175 h -2.19604 v 4.24259 4.24259 l 2.6889,-0.0754 2.6889,-0.0754 1.77149,-5.55625 c 1.04647,-3.28223 2.35535,-6.7474 3.19808,-8.46667 l 1.42659,-2.91041 -0.007,-3.04271 c -0.008,-3.56951 -0.47351,-5.06221 -2.39201,-7.66831 -3.86237,-5.24665 -10.66669,-6.90968 -16.692906,-4.07989 -1.998902,0.93865 -5.037533,3.94558 -5.989846,5.92737 -0.890811,1.8538 -1.509137,4.25736 -1.509137,5.86634 0,1.82756 1.040432,4.81848 2.594942,7.45966 1.302563,2.21311 2.152511,4.44574 3.091148,8.1198 0.239607,0.93788 0.614519,2.33032 0.833137,3.0943 l 0.397488,1.38906 h 2.627064 2.62705 z"
         id="path68"
         inkscape:connector-curvature="0" />
      <path
         style="fill:#a69a1b;stroke-width:0.26458332"
         d="m 102.33706,174.04043 c -2.445116,-0.6391 -4.314722,-2.13102 -5.405213,-4.31329 -0.930483,-1.86206 -1.12766,-4.00971 -0.393982,-4.29124 0.230183,-0.0883 3.613725,-0.1606 7.518985,-0.1606 3.90526,0 7.2888,0.0723 7.51899,0.1606 0.7313,0.28062 0.53668,2.42881 -0.38763,4.27852 -0.89805,1.79716 -2.18061,3.06324 -3.85213,3.80263 -1.2712,0.56231 -3.82654,0.82985 -4.99902,0.52338 z m 4.56316,-2.38093 c 1.62965,-0.83138 3.57509,-3.51461 3.10256,-4.27918 -0.22437,-0.36303 -11.684987,-0.33473 -11.910036,0.0294 -0.282078,0.45641 0.991252,2.63884 2.030276,3.47979 1.98518,1.60673 4.56295,1.8996 6.7772,0.76998 z m -10.949772,-8.89775 c -0.08376,-0.21828 -0.08376,-0.57546 0,-0.79375 0.130676,-0.34053 1.275638,-0.39687 8.065702,-0.39687 6.71136,0 7.96344,0.0603 8.24278,0.39687 0.26279,0.31664 0.26279,0.47712 0,0.79375 -0.27934,0.33659 -1.53142,0.39688 -8.24278,0.39688 -6.790064,0 -7.935026,-0.0563 -8.065702,-0.39688 z m -0.03299,-3.9026 c -0.146681,-0.1819 -0.876254,-2.59292 -1.621274,-5.35781 -0.790508,-2.93371 -1.686106,-5.63306 -2.150714,-6.48229 -0.437873,-0.80037 -1.358988,-2.58256 -2.046922,-3.96043 -1.223003,-2.44956 -1.252961,-2.5687 -1.348616,-5.36334 -0.08566,-2.50278 -0.01285,-3.12883 0.585637,-5.03541 1.23437,-3.93228 3.864234,-7.08682 7.501583,-8.99819 2.435897,-1.28003 4.458098,-1.77805 7.219708,-1.77805 7.91516,0 14.22177,5.56815 15.35478,13.55681 0.37698,2.65803 -0.0255,4.48736 -1.85808,8.44456 -0.89979,1.94301 -2.2845,5.71171 -3.29936,8.97966 -0.96185,3.09727 -1.87838,5.78752 -2.03673,5.97832 -0.40892,0.49271 -15.903344,0.50809 -16.300012,0.0162 z m 6.816482,-6.01927 v -4.23333 h -2.19604 c -1.355257,0 -2.317604,-0.12156 -2.513544,-0.3175 -0.486072,-0.48607 -0.377788,-1.4837 0.194272,-1.78986 0.682704,-0.36537 10.993752,-0.36537 11.676462,0 0.57206,0.30616 0.68034,1.30379 0.19427,1.78986 -0.19594,0.19594 -1.15829,0.3175 -2.51354,0.3175 h -2.19604 v 4.24259 4.24259 l 2.6889,-0.0754 2.6889,-0.0754 1.77149,-5.55625 c 0.99877,-3.13261 2.38583,-6.82577 3.17988,-8.46667 1.32563,-2.7394 1.41515,-3.05324 1.52356,-5.34115 0.0925,-1.9519 0.005,-2.79209 -0.44199,-4.26509 -0.6759,-2.22527 -2.3169,-4.7574 -3.94152,-6.08193 -0.6615,-0.53932 -1.43421,-1.20108 -1.71714,-1.47059 -0.88039,-0.83865 -3.17122,-1.73254 -5.16456,-2.01525 -5.21714,-0.73992 -10.441952,1.67437 -13.437959,6.20943 -1.766647,2.67418 -2.722403,7.33938 -1.874391,9.14919 0.23322,0.49774 0.602794,1.41796 0.821276,2.04493 0.218482,0.62697 0.991828,2.15018 1.718547,3.3849 1.268997,2.15608 2.12089,4.40333 3.054423,8.05741 0.239607,0.93788 0.614519,2.33032 0.833137,3.0943 l 0.397488,1.38906 h 2.627069 2.62705 z"
         id="path66"
         inkscape:connector-curvature="0" />
      <path
         style="fill:#5a5a59;stroke-width:0.26458332"
         d="m 102.33706,174.04043 c -2.445116,-0.6391 -4.314722,-2.13102 -5.405213,-4.31329 -0.930483,-1.86206 -1.12766,-4.00971 -0.393982,-4.29124 0.230183,-0.0883 3.613725,-0.1606 7.518985,-0.1606 3.90526,0 7.2888,0.0723 7.51899,0.1606 0.7313,0.28062 0.53668,2.42881 -0.38763,4.27852 -0.89805,1.79716 -2.18061,3.06324 -3.85213,3.80263 -1.2712,0.56231 -3.82654,0.82985 -4.99902,0.52338 z m 4.56316,-2.38093 c 1.62965,-0.83138 3.57509,-3.51461 3.10256,-4.27918 -0.22437,-0.36303 -11.684987,-0.33473 -11.910036,0.0294 -0.282078,0.45641 0.991252,2.63884 2.030276,3.47979 1.98518,1.60673 4.56295,1.8996 6.7772,0.76998 z m -10.949772,-8.89775 c -0.08376,-0.21828 -0.08376,-0.57546 0,-0.79375 0.130676,-0.34053 1.275638,-0.39687 8.065702,-0.39687 6.71136,0 7.96344,0.0603 8.24278,0.39687 0.26279,0.31664 0.26279,0.47712 0,0.79375 -0.27934,0.33659 -1.53142,0.39688 -8.24278,0.39688 -6.790064,0 -7.935026,-0.0563 -8.065702,-0.39688 z m -0.03299,-3.9026 c -0.146681,-0.1819 -0.876254,-2.59292 -1.621274,-5.35781 -0.790508,-2.93371 -1.686106,-5.63306 -2.150714,-6.48229 -0.437873,-0.80037 -1.358988,-2.58256 -2.046922,-3.96043 -1.223003,-2.44956 -1.252961,-2.5687 -1.348616,-5.36334 -0.08566,-2.50278 -0.01285,-3.12883 0.585637,-5.03541 1.23437,-3.93228 3.864234,-7.08682 7.501583,-8.99819 2.435897,-1.28003 4.458098,-1.77805 7.219708,-1.77805 7.91516,0 14.22177,5.56815 15.35478,13.55681 0.37698,2.65803 -0.0255,4.48736 -1.85808,8.44456 -0.89979,1.94301 -2.2845,5.71171 -3.29936,8.97966 -0.96185,3.09727 -1.87838,5.78752 -2.03673,5.97832 -0.40892,0.49271 -15.903344,0.50809 -16.300012,0.0162 z m 7.185042,-1.93987 c 0.23355,-0.60863 0.18926,-7.85802 -0.0503,-8.23495 -0.12467,-0.19615 -1.0554,-0.34907 -2.41546,-0.39688 -1.719289,-0.0604 -2.274444,-0.17607 -2.48978,-0.51862 -0.200686,-0.31925 -0.181197,-0.55643 0.07066,-0.8599 0.521058,-0.62783 11.15742,-0.62783 11.67848,0 0.25185,0.30347 0.27134,0.54065 0.0707,0.8599 -0.21534,0.34255 -0.7705,0.45819 -2.48978,0.51862 -1.36007,0.0478 -2.29079,0.20073 -2.41545,0.39688 -0.23958,0.37693 -0.28387,7.62632 -0.0503,8.23495 0.13269,0.34579 0.65585,0.41852 3.01061,0.41852 h 2.85001 l 0.28006,-0.72761 c 0.15403,-0.40018 0.89855,-2.75166 1.65449,-5.22552 0.75594,-2.47385 2.06923,-5.9862 2.91843,-7.80521 1.94619,-4.16882 2.24352,-5.48213 1.84836,-8.16412 -1.35986,-9.22943 -11.17568,-14.45878 -19.469435,-10.37229 -4.807128,2.36856 -7.614716,6.80183 -7.633876,12.05412 -0.01016,2.78513 0.334643,3.82392 2.573286,7.75254 1.4029,2.46198 2.079892,4.45265 3.864562,11.36361 l 0.290382,1.12448 h 2.871911 c 2.37473,0 2.89971,-0.0725 3.03251,-0.41852 z"
         id="path64"
         inkscape:connector-curvature="0" />
      <path
         style="fill:#645d10;stroke-width:0.26458332"
         d="m 102.3991,173.73124 c -1.51936,-0.37713 -2.87186,-1.16137 -3.935492,-2.28196 -1.357063,-1.42974 -1.890091,-2.6283 -1.920857,-4.31923 l -0.02652,-1.45788 h 7.540629 7.54063 l 0.0848,1.03743 c 0.18726,2.2905 -1.92885,5.39321 -4.40468,6.45828 -1.53909,0.6621 -3.54673,0.89394 -4.87851,0.56336 z m 4.94607,-1.94855 c 1.41281,-0.82796 2.84213,-2.78073 2.89309,-3.95261 l 0.0363,-0.83499 -6.15799,-0.071 c -7.116485,-0.0821 -6.996425,-0.12832 -5.76673,2.22037 1.268972,2.4237 3.38207,3.6024 6.1595,3.43581 1.16939,-0.0701 1.98698,-0.30008 2.83583,-0.79754 z m -11.225819,-9.41781 c 0,-0.51741 0.176389,-0.52917 7.937499,-0.52917 7.76111,0 7.9375,0.0118 7.9375,0.52917 0,0.51741 -0.17639,0.52917 -7.9375,0.52917 -7.76111,0 -7.937499,-0.0118 -7.937499,-0.52917 z m -0.08039,-3.63417 c -0.06401,-0.11126 -0.739022,-2.52401 -1.500027,-5.36166 -1.201442,-4.47997 -1.580452,-5.50761 -2.878178,-7.80383 -2.063975,-3.65203 -2.669842,-5.54006 -2.678326,-8.34631 -0.0038,-1.24274 0.175144,-2.95817 0.397557,-3.81207 1.348949,-5.17896 5.684994,-9.49931 10.878593,-10.83921 2.08085,-0.53684 5.51569,-0.53684 7.59654,0 6.44787,1.66349 11.24985,7.67619 11.32559,14.1811 0.0315,2.70647 -0.13545,3.33741 -1.84156,6.95925 -0.88324,1.87499 -2.25812,5.6061 -3.36363,9.12812 l -1.86977,5.9569 -7.9752,0.07 c -4.386366,0.0385 -8.02758,-0.021 -8.091589,-0.13229 z m 7.063539,-1.81143 c 0.23355,-0.60863 0.18926,-7.85802 -0.0503,-8.23495 -0.12467,-0.19615 -1.05539,-0.34907 -2.41546,-0.39688 -1.719285,-0.0604 -2.27444,-0.17607 -2.489776,-0.51862 -0.200686,-0.31925 -0.181197,-0.55643 0.07066,-0.8599 0.521058,-0.62783 11.157416,-0.62783 11.678476,0 0.25185,0.30347 0.27134,0.54065 0.0707,0.8599 -0.21534,0.34255 -0.7705,0.45819 -2.48978,0.51862 -1.36007,0.0478 -2.29079,0.20073 -2.41545,0.39688 -0.23958,0.37693 -0.28387,7.62632 -0.0503,8.23495 0.13269,0.34579 0.65585,0.41852 3.01061,0.41852 h 2.85001 l 0.28006,-0.72761 c 0.15403,-0.40018 0.89855,-2.75166 1.65449,-5.22552 0.75594,-2.47385 2.06923,-5.9862 2.91843,-7.80521 0.84919,-1.81901 1.67951,-3.94505 1.84515,-4.72454 0.45919,-2.16083 -0.0335,-4.95241 -1.34598,-7.62678 -0.88838,-1.81015 -1.44049,-2.5153 -3.36969,-4.30373 -2.53925,-2.35397 -3.79862,-2.98303 -6.95135,-3.47219 -5.62315,-0.87246 -11.663872,2.30322 -14.274819,7.50446 -1.451203,2.89093 -1.990293,7.23665 -1.094139,8.8201 0.154202,0.27247 0.467405,0.97164 0.696008,1.55373 0.228602,0.58208 1.059099,2.18942 1.845548,3.57187 1.366059,2.40131 2.061254,4.45323 3.832173,11.31094 l 0.290382,1.12448 h 2.871907 c 2.37473,0 2.89971,-0.0725 3.03251,-0.41852 z"
         id="path62"
         inkscape:connector-curvature="0" />
      <path
         style="fill:#100f0b;stroke-width:0.26458332"
         d="m 102.3991,173.73124 c -1.51936,-0.37713 -2.87186,-1.16137 -3.935492,-2.28196 -1.357063,-1.42974 -1.890091,-2.6283 -1.920857,-4.31923 l -0.02652,-1.45788 h 7.540629 7.54063 l 0.0848,1.03743 c 0.18726,2.2905 -1.92885,5.39321 -4.40468,6.45828 -1.53909,0.6621 -3.54673,0.89394 -4.87851,0.56336 z m 4.94607,-1.94855 c 1.41281,-0.82796 2.84213,-2.78073 2.89309,-3.95261 l 0.0363,-0.83499 -6.15799,-0.071 c -7.116485,-0.0821 -6.996425,-0.12832 -5.76673,2.22037 1.268972,2.4237 3.38207,3.6024 6.1595,3.43581 1.16939,-0.0701 1.98698,-0.30008 2.83583,-0.79754 z m -11.225819,-9.41781 c 0,-0.51741 0.176389,-0.52917 7.937499,-0.52917 7.76111,0 7.9375,0.0118 7.9375,0.52917 0,0.51741 -0.17639,0.52917 -7.9375,0.52917 -7.76111,0 -7.937499,-0.0118 -7.937499,-0.52917 z m -0.08039,-3.63417 c -0.06401,-0.11126 -0.739022,-2.52401 -1.500027,-5.36166 -1.201442,-4.47997 -1.580452,-5.50761 -2.878178,-7.80383 -2.063975,-3.65203 -2.669842,-5.54006 -2.678326,-8.34631 -0.0038,-1.24274 0.175144,-2.95817 0.397557,-3.81207 1.348949,-5.17896 5.684994,-9.49931 10.878593,-10.83921 2.08085,-0.53684 5.51569,-0.53684 7.59654,0 6.44787,1.66349 11.24985,7.67619 11.32559,14.1811 0.0315,2.70647 -0.13545,3.33741 -1.84156,6.95925 -0.88324,1.87499 -2.25812,5.6061 -3.36363,9.12812 l -1.86977,5.9569 -7.9752,0.07 c -4.386366,0.0385 -8.02758,-0.021 -8.091589,-0.13229 z m 7.328119,-1.54685 c 0.3141,-0.81852 0.17779,-8.45429 -0.1569,-8.78898 -0.19613,-0.19613 -1.16013,-0.3175 -2.52184,-0.3175 -1.777108,0 -2.235852,-0.0821 -2.36689,-0.42358 -0.0894,-0.23297 0.0036,-0.5288 0.206741,-0.6574 0.481707,-0.30502 10.575609,-0.30502 11.057319,0 0.2031,0.1286 0.29614,0.42443 0.20674,0.6574 -0.13139,0.34239 -0.5934,0.42358 -2.41049,0.42358 -1.9517,0 -2.28405,0.0675 -2.52185,0.51177 -0.29059,0.54298 -0.38732,7.88063 -0.11329,8.59471 0.1333,0.34738 0.66748,0.41852 3.1426,0.41852 2.07102,0 3.06116,-0.10104 3.24111,-0.33073 0.14251,-0.1819 0.99934,-2.70975 1.90407,-5.61743 0.9391,-3.01814 2.26603,-6.59327 3.09228,-8.33154 1.85078,-3.89362 2.19542,-5.70238 1.62076,-8.50603 -2.05158,-10.00921 -13.06309,-14.68229 -21.461392,-9.10782 -2.99123,1.98547 -5.043561,5.05591 -5.87379,8.78763 -0.77924,3.50253 -0.208723,5.94122 2.483709,10.61666 1.076086,1.86864 1.555845,3.15083 2.544641,6.80072 1.719575,6.34738 1.169922,5.68854 4.745802,5.68854 2.50984,0 3.04721,-0.0707 3.18067,-0.41852 z"
         id="path60"
         inkscape:connector-curvature="0" />
    </g>
  </g>
</svg>
